<?xml version="1.0" standalone="no"?>
<!DOCTYPE svg PUBLIC "-//W3C//DTD SVG 20010904//EN"
 "http://www.w3.org/TR/2001/REC-SVG-20010904/DTD/svg10.dtd">
<svg version="1.0" xmlns="http://www.w3.org/2000/svg"
 width="500.000000pt" height="500.000000pt" viewBox="0 0 500.000000 500.000000"
 preserveAspectRatio="xMidYMid meet">

<g transform="translate(0.000000,500.000000) scale(0.100000,-0.100000)"
fill="#000000" stroke="none">
<path d="M0 2500 l0 -2500 2500 0 2500 0 0 2500 0 2500 -2500 0 -2500 0 0
-2500z m2929 304 c39 -32 39 -53 1 -89 l-29 -28 -36 27 c-19 15 -35 32 -35 38
0 15 49 78 60 78 5 0 22 -12 39 -26z m725 -224 c72 -180 82 -200 103 -200 13
0 23 -4 23 -10 0 -5 13 -1 30 8 l30 17 0 162 c0 160 0 162 -22 165 -15 2 -24
11 -26 26 -3 22 -2 22 107 22 91 0 111 -3 111 -15 0 -8 -11 -22 -25 -31 l-25
-17 2 -160 3 -161 25 -6 c14 -3 26 -13 28 -23 3 -15 -16 -17 -227 -17 -126 0
-233 4 -236 9 -3 5 6 18 21 28 22 16 24 22 15 46 -10 26 -14 27 -75 27 -54 0
-67 -3 -76 -19 -16 -31 -12 -49 12 -53 13 -2 24 -11 26 -20 3 -16 -6 -18 -92
-18 -102 0 -121 11 -70 40 21 12 41 51 93 180 37 91 65 172 63 181 -2 12 8 20
35 27 21 5 45 10 53 11 10 1 39 -60 94 -199z m-2344 168 c75 -38 90 -112 31
-160 l-27 -23 31 -20 c74 -51 68 -139 -14 -182 -40 -21 -57 -23 -192 -23 -89
0 -150 4 -154 10 -3 6 7 18 24 28 l31 17 0 162 c0 160 0 162 -22 165 -15 2
-24 11 -26 26 -3 22 -3 22 135 22 124 0 144 -2 183 -22z m595 -58 c7 -40 7
-40 51 -40 38 0 44 -3 44 -22 0 -29 -28 -58 -57 -58 -23 0 -24 -2 -21 -77 l3
-78 32 3 c24 2 32 -1 35 -15 3 -13 -10 -26 -46 -45 -59 -33 -85 -35 -120 -7
-25 20 -26 24 -26 120 0 93 -1 99 -20 99 -12 0 -36 -15 -54 -33 -32 -32 -32
-34 -13 -43 48 -22 36 -96 -17 -102 -17 -2 -36 4 -48 15 -20 18 -21 18 -13 -5
10 -33 -18 -72 -53 -72 -37 0 -52 17 -52 59 0 32 -1 33 -18 18 -36 -33 -92
-13 -92 31 0 31 8 45 33 59 17 9 17 11 -7 27 -36 23 -36 69 0 93 25 16 28 16
55 0 l29 -16 0 34 c0 25 6 37 21 45 44 24 98 -15 86 -62 -5 -18 -4 -18 19 -3
30 20 71 10 80 -18 l7 -22 8 23 c5 12 20 27 34 34 14 6 25 14 25 18 0 4 7 24
15 44 13 30 20 36 44 36 26 0 30 -4 36 -40z m382 -54 c27 -23 28 -29 31 -125
4 -93 5 -100 25 -103 36 -5 30 -31 -12 -55 -50 -28 -69 -29 -97 -2 l-23 21
-29 -21 c-18 -12 -45 -21 -66 -21 -74 0 -113 84 -64 137 18 19 32 23 85 23
l63 0 0 36 c0 45 -15 74 -39 74 -20 0 -31 -19 -31 -51 0 -15 -7 -19 -39 -19
-37 0 -39 1 -45 41 -4 22 -4 44 -1 49 10 17 98 39 157 39 46 1 62 -3 85 -23z
m239 1 l18 -23 46 25 c51 27 87 24 120 -9 17 -17 20 -34 20 -125 0 -103 1
-106 25 -117 14 -6 25 -19 25 -30 0 -16 -9 -18 -80 -18 l-80 0 0 103 c0 119
-10 144 -53 133 -27 -6 -27 -8 -27 -94 0 -76 2 -89 20 -100 11 -7 20 -19 20
-27 0 -12 -18 -15 -100 -15 -80 0 -100 3 -100 14 0 8 9 18 20 21 18 6 20 15
20 112 0 95 -2 105 -19 110 -23 6 -35 30 -20 39 19 11 64 22 96 23 22 1 37 -6
49 -22z m416 6 c15 -14 18 -32 18 -134 0 -109 1 -118 20 -124 11 -3 20 -15 20
-26 0 -18 -8 -19 -105 -19 -86 0 -105 3 -105 15 0 8 11 17 25 21 l26 6 -3 107
c-3 101 -4 106 -25 109 -15 2 -23 10 -23 22 0 36 118 54 152 23z m308 2 c32
-16 54 -49 47 -68 -3 -7 -21 -21 -41 -31 l-36 -19 -34 39 -33 38 -12 -23 c-17
-31 -17 -106 -1 -136 17 -31 63 -45 109 -32 32 8 50 0 51 -24 0 -15 -101 -59
-137 -59 -113 0 -186 134 -131 240 31 60 77 90 140 90 27 0 62 -7 78 -15z"/>
<path d="M3492 2574 c-12 -32 -20 -60 -18 -62 2 -2 22 -2 44 0 l39 3 -22 58
-22 59 -21 -58z"/>
<path d="M1178 2703 c-14 -4 -18 -16 -18 -59 l0 -55 37 3 c51 4 73 40 52 84
-14 28 -36 37 -71 27z"/>
<path d="M1160 2465 l0 -65 39 0 c46 0 71 20 71 58 0 46 -26 72 -71 72 l-39 0
0 -65z"/>
<path d="M1550 2536 c-6 -8 -10 -25 -8 -38 2 -18 10 -24 35 -26 37 -4 56 20
42 56 -10 26 -50 30 -69 8z"/>
<path d="M2152 2438 c-22 -22 -14 -40 16 -36 33 4 47 48 15 48 -11 0 -24 -5
-31 -12z"/>
</g>
</svg>
